<?xml version="1.0" encoding="utf-8"?>
<!-- Generator: Adobe Illustrator 23.0.2, SVG Export Plug-In . SVG Version: 6.00 Build 0)  -->
<svg version="1.1" id="Layer_1" xmlns="http://www.w3.org/2000/svg" xmlns:xlink="http://www.w3.org/1999/xlink" x="0px" y="0px"
	 viewBox="0 0 48 49" style="enable-background:new 0 0 48 49;" xml:space="preserve">
<style type="text/css">
	.st0{fill:#43A51A;}
	.st1{font-family:'SFProText-Medium';}
	.st2{font-size:10px;}
</style>
<title>Overrides/Tab Bar/Item - Active</title>
<desc>Created with Sketch.</desc>
<g>
	<text transform="matrix(1 0 0 1 5.5356 45.5)" class="st0 st1 st2">Explore</text>
	<path id="Shape" class="st0" d="M35,5c0-0.6-0.4-1-1-1h-4c-0.6,0-1,0.4-1,1v3h6V5z M11.3,12.2C11.2,18.6,7.2,20,7,28.8v3
		C7,33,8,34,9.2,34h6.5c1.2,0,2.2-1,2.2-2.2V20.9H20V10h-6.5C12.3,10,11.4,11,11.3,12.2z M36.7,12.2c0-1.2-1-2.2-2.2-2.2H28v10.9
		h2.2v10.9c0,1.2,1,2.2,2.2,2.2h6.5c1.2,0,2.2-1,2.2-2.2v-3C40.8,20,36.8,18.6,36.7,12.2z M19,4h-4c-0.6,0-1,0.4-1,1v3h6V5
		C20,4.4,19.6,4,19,4z M22,21h4V10h-4V21z"/>
</g>
</svg>
