<?xml version="1.0" encoding="UTF-8"?>
<svg width="60px" height="60px" viewBox="0 0 60 60" version="1.1" xmlns="http://www.w3.org/2000/svg" xmlns:xlink="http://www.w3.org/1999/xlink">
    <!-- Generator: Sketch 53.2 (72643) - https://sketchapp.com -->
    <title>First Aid</title>
    <desc>Created with Sketch.</desc>
    <g id="First-Aid" stroke="none" stroke-width="1" fill="none" fill-rule="evenodd">
        <circle id="Oval" stroke="#979797" fill="#D8D8D8" opacity="0.251883371" cx="30" cy="30" r="30"></circle>
        <g id="first-aid-solid" transform="translate(9.000000, 15.000000)" fill="#D31414" fill-rule="nonzero">
            <path d="M0,3.53571429 L0,29.4642857 C0,31.4162946 1.60503472,33 3.58333333,33 L7.16666667,33 L7.16666667,0 L3.58333333,0 C1.60503472,0 0,1.58370536 0,3.53571429 Z M9.55555556,33 L33.4444444,33 L33.4444444,0 L9.55555556,0 L9.55555556,33 Z M14.3333333,14.7321429 C14.3333333,14.4080357 14.6020833,14.1428571 14.9305556,14.1428571 L19.1111111,14.1428571 L19.1111111,10.0178571 C19.1111111,9.69375 19.3798611,9.42857143 19.7083333,9.42857143 L23.2916667,9.42857143 C23.6201389,9.42857143 23.8888889,9.69375 23.8888889,10.0178571 L23.8888889,14.1428571 L28.0694444,14.1428571 C28.3979167,14.1428571 28.6666667,14.4080357 28.6666667,14.7321429 L28.6666667,18.2678571 C28.6666667,18.5919643 28.3979167,18.8571429 28.0694444,18.8571429 L23.8888889,18.8571429 L23.8888889,22.9821429 C23.8888889,23.30625 23.6201389,23.5714286 23.2916667,23.5714286 L19.7083333,23.5714286 C19.3798611,23.5714286 19.1111111,23.30625 19.1111111,22.9821429 L19.1111111,18.8571429 L14.9305556,18.8571429 C14.6020833,18.8571429 14.3333333,18.5919643 14.3333333,18.2678571 L14.3333333,14.7321429 Z M39.4166667,0 L35.8333333,0 L35.8333333,33 L39.4166667,33 C41.3949653,33 43,31.4162946 43,29.4642857 L43,3.53571429 C43,1.58370536 41.3949653,0 39.4166667,0 Z" id="Shape"></path>
        </g>
    </g>
</svg>