<?xml version="1.0" encoding="UTF-8"?>
<svg width="100px" height="89px" viewBox="0 0 100 89" version="1.1" xmlns="http://www.w3.org/2000/svg" xmlns:xlink="http://www.w3.org/1999/xlink">
    <!-- Generator: Sketch 53.2 (72643) - https://sketchapp.com -->
    <title>Group</title>
    <desc>Created with Sketch.</desc>
    <g id="Page-1" stroke="none" stroke-width="1" fill="none" fill-rule="evenodd">
        <g id="iPhone-8-Plus" transform="translate(-41.000000, -94.000000)" fill="#43A51A" fill-rule="nonzero">
            <g id="Group" transform="translate(41.000000, 94.000000)">
                <path d="M98.9364547,36.1760845 L51.5349793,0.515650157 C50.6209184,-0.171883386 49.3791238,-0.171883386 48.4654536,0.515650157 L1.06358755,36.1760845 C-0.0942228256,37.0472412 -0.345784864,38.7177109 0.502065142,39.9073487 C1.34991515,41.0969864 2.97588872,41.3550623 4.13350379,40.4843069 L50.0000211,5.97839113 L95.8665385,40.4841062 C96.3290376,40.832288 96.8665366,40.9998567 97.3993482,40.9998567 C98.1993467,40.9998567 98.9887984,40.6215728 99.4977818,39.907148 C100.345827,38.7177109 100.094265,37.0472412 98.9364547,36.1760845 Z" id="Path-Copy-14"></path>
                <path d="M87.3665215,41 C85.9124075,41 84.733241,42.1360089 84.733241,43.5373281 L84.733241,83.9249623 L49.6595745,83.9249623 L49.6595745,75.8192921 C49.6595745,68.8231862 43.7524589,63.1316977 36.492182,63.1316977 C29.2319051,63.1316977 23.3247895,68.8235677 23.3247895,75.8192921 L23.3247895,83.925153 L16.2665611,83.925153 L16.2665611,43.5375189 C16.2665611,42.1361996 15.0873946,41.0001907 13.6332805,41.0001907 C12.1791665,41.0001907 11,42.1361996 11,43.5375189 L11,86.4626719 C11,87.8639911 12.1791665,89 13.6332805,89 L25.9580701,89 C27.3429029,89 28.4761458,87.9690853 28.5810574,86.6602718 C28.5873917,86.6009537 28.5913506,86.5361043 28.5913506,86.4626719 L28.5913506,75.8194828 C28.5913506,71.6216286 32.1355804,68.2065447 36.492182,68.2065447 C40.8487836,68.2065447 44.3930134,71.6218193 44.3930134,75.8194828 L44.3930134,86.4626719 C44.3930134,86.5357228 44.3969723,86.5994278 44.4033066,86.657983 C44.5070305,87.9677501 45.6406693,89 47.0262939,89 L87.3667195,89 C88.8210314,89 90,87.8639911 90,86.4626719 L90,43.5375189 C89.9998021,42.1360089 88.8208335,41 87.3665215,41 Z" id="Path-Copy-15"></path>
                <g id="615075-copy-7" transform="translate(31.000000, 30.000000)">
                    <path d="M23.9557901,7.51055729 C23.9557901,3.36725511 27.3876212,0 31.6103822,0 C35.8331432,0 39.2649743,3.36725511 39.2649743,7.51055729 C39.2649743,11.5091727 36.0610382,14.7843544 32.0527667,15.0079612 C31.9053052,15.0079612 31.7578437,15.0079612 31.6103822,15.0079612 C31.4629207,15.0079612 31.3154592,15.0079612 31.1679977,15.0079612 C27.1597262,14.7843544 23.9557901,11.5091727 23.9557901,7.51055729 Z M5.77780947,10.2464521 C5.77780947,7.2211838 8.28465488,4.76150917 11.3679407,4.76150917 C14.4512265,4.76150917 16.9580719,7.2211838 16.9580719,10.2464521 C16.9580719,13.2322603 14.5048488,15.6656282 11.4751854,15.7313949 C11.4349686,15.7313949 11.4081574,15.7313949 11.3679407,15.7313949 C11.3277239,15.7313949 11.3009127,15.7313949 11.2606959,15.7313949 C8.23103252,15.6787816 5.77780947,13.2454136 5.77780947,10.2464521 Z M14.6523103,27.871928 L0,27.871928 C0.603251569,22.2686051 5.42926412,17.8753894 11.2875071,17.8359294 C11.3143183,17.8359294 11.3411295,17.8359294 11.3679407,17.8359294 C11.3947519,17.8359294 11.421563,17.8359294 11.4483742,17.8359294 C14.236737,17.8490827 16.7837992,18.8618899 18.754421,20.5060575 C16.824016,22.5579785 15.3896178,25.0834199 14.6523103,27.871928 Z M47,33.1069574 C47,35.8033922 44.7612664,38 42.0131204,38 L21.2344552,38 C18.4863092,38 16.2475756,35.8033922 16.2475756,33.1069574 L16.2475756,32.2125303 C16.2475756,24.044306 22.8967484,17.3624091 31.1679977,17.125649 C31.3154592,17.1388024 31.4763263,17.1388024 31.6237878,17.1388024 C31.7712493,17.1388024 31.9321164,17.1388024 32.0795779,17.125649 C40.3508272,17.3624091 47,24.044306 47,32.2125303 L47,33.1069574 L47,33.1069574 Z" id="Shape"></path>
                </g>
            </g>
        </g>
    </g>
</svg>