<?xml version="1.0" encoding="UTF-8"?>
<svg width="27px" height="43px" viewBox="0 0 27 43" version="1.1" xmlns="http://www.w3.org/2000/svg" xmlns:xlink="http://www.w3.org/1999/xlink">
    <!-- Generator: Sketch 53.2 (72643) - https://sketchapp.com -->
    <title>House Map</title>
    <desc>Created with Sketch.</desc>
    <g id="House-Map" stroke="none" stroke-width="1" fill="none" fill-rule="evenodd">
        <g id="Group">
            <path d="M13.5461839,42.965452 C13.5461839,42.965452 17.3884521,34.7778035 24.0491041,23.5249726 C30.709756,12.2721418 25.4410563,0.982237231 13.5461836,0.982237231 C1.65131088,0.982237231 -3.43590431,11.4455673 2.51153213,23.5249726 C9.30027933,34.7775296 13.5461839,42.965452 13.5461839,42.965452 Z" id="Oval-1" fill="#43A51A"></path>
            <g id="house" transform="translate(3.000000, 8.000000)" fill="#FFFFFF" fill-rule="nonzero">
                <path d="M10.3884896,4.01587926 L3.66666667,9.50146657 L3.66666667,15.4219994 C3.66666667,15.7412203 3.9278339,16 4.25,16 L8.33552083,15.9895237 C8.65654732,15.9879333 8.91594151,15.7296188 8.9159375,15.4115231 L8.9159375,11.9539955 C8.9159375,11.6347746 9.17710473,11.3759949 9.49927083,11.3759949 L11.8326042,11.3759949 C12.1547703,11.3759949 12.4159375,11.6347746 12.4159375,11.9539955 L12.4159375,15.4089943 C12.415453,15.5626024 12.4766973,15.7100835 12.586146,15.8188707 C12.6955948,15.9276578 12.8442449,15.988802 12.9992708,15.9888012 L17.0833333,16 C17.4054994,16 17.6666667,15.7412203 17.6666667,15.4219994 L17.6666667,9.49749282 L10.9463021,4.01587926 C10.7835141,3.88586338 10.5512775,3.88586338 10.3884896,4.01587926 Z M20.8385222,7.91086008 L17.7908408,5.42641304 L17.7908408,0.432642061 C17.7908408,0.193700448 17.5949805,0 17.3533746,0 L15.3118655,0 C15.0702596,0 14.8743993,0.193700448 14.8743993,0.432642061 L14.8743993,3.05048706 L11.6105367,0.39478588 C10.9645713,-0.130915872 10.0327154,-0.130915872 9.38675005,0.39478588 L0.158764572,7.91086008 C0.0693000567,7.98398976 0.0128885344,8.08928308 0.00194876684,8.20356013 C-0.00899100069,8.31783718 0.0264378274,8.43172955 0.100435742,8.52016431 L1.03005147,9.63782297 C1.10384921,9.72656784 1.21031133,9.78263534 1.3259578,9.79365988 C1.44160426,9.80468442 1.55693511,9.76976038 1.6465143,9.69659018 L10.2215814,2.71158411 C10.3843568,2.58182569 10.6165755,2.58182569 10.7793509,2.71158411 L19.3547826,9.69659018 C19.4442034,9.76977208 19.5593657,9.80481022 19.674917,9.79399109 C19.7904683,9.78317196 19.8969357,9.72738252 19.9708808,9.63890457 L20.9004966,8.52124592 C20.9744193,8.43229603 21.0094415,8.31787403 20.9978097,8.20331198 C20.9861779,8.08874994 20.9288515,7.98349873 20.8385222,7.91086008 L20.8385222,7.91086008 Z" id="Shape"></path>
            </g>
        </g>
    </g>
</svg>