<?xml version="1.0" encoding="utf-8"?>
<!-- Generator: Adobe Illustrator 23.0.2, SVG Export Plug-In . SVG Version: 6.00 Build 0)  -->
<svg version="1.1" id="Layer_1" xmlns="http://www.w3.org/2000/svg" xmlns:xlink="http://www.w3.org/1999/xlink" x="0px" y="0px"
	 viewBox="0 0 48 49" style="enable-background:new 0 0 48 49;" xml:space="preserve">
<style type="text/css">
	.st0{fill-rule:evenodd;clip-rule:evenodd;fill:#8E8E93;}
	.st1{fill:#8E8E93;}
	.st2{font-family:'SFProText-Medium';}
	.st3{font-size:10px;}
</style>
<title>Overrides/Tab Bar/Icons/Unselected/3</title>
<desc>Created with Sketch.</desc>
<g>
	<g id="Group-3" transform="translate(11.000000, 2.000000)">
		<path id="Path" class="st0" d="M6.7,6.5C6.7,2.9,9.6,0,13.2,0s6.5,2.9,6.5,6.5c0,3.5-2.7,6.3-6.1,6.5c-0.1,0-0.3,0-0.4,0
			c-0.1,0-0.3,0-0.4,0C9.4,12.8,6.7,10,6.7,6.5z"/>
		<path class="st0" d="M20.8,30H4.6c-2.1,0-3.9-1.8-3.9-4v-0.7c0-6.7,5.2-12.1,11.6-12.3c0.1,0,0.2,0,0.4,0s0.2,0,0.4,0
			c6.5,0.2,11.6,5.6,11.6,12.3V26C24.7,28.2,22.9,30,20.8,30z"/>
	</g>
	<text transform="matrix(1 0 0 1 7.955 45)" class="st1 st2 st3">Profile</text>
</g>
</svg>
