<?xml version="1.0" encoding="UTF-8"?>
<svg width="28px" height="43px" viewBox="0 0 28 43" version="1.1" xmlns="http://www.w3.org/2000/svg" xmlns:xlink="http://www.w3.org/1999/xlink">
    <!-- Generator: Sketch 53.2 (72643) - https://sketchapp.com -->
    <title>Robot Map</title>
    <desc>Created with Sketch.</desc>
    <g id="Robot-Map" stroke="none" stroke-width="1" fill="none" fill-rule="evenodd">
        <path d="M13.8593946,42.8398328 C13.8593946,42.8398328 17.8515854,34.4538889 24.7721315,22.9285274 C31.6926775,11.4031659 26.2183968,-0.160167218 13.8593942,-0.160167218 C1.50039169,-0.160167218 -3.78532317,10.5565727 2.39417819,22.9285274 C9.44781768,34.4536083 13.8593946,42.8398328 13.8593946,42.8398328 Z" id="Oval-1" fill="#D31414"></path>
        <g id="robot-solid" transform="translate(4.000000, 8.000000)" fill="#FFFFFF" fill-rule="nonzero">
            <path d="M0.302821701,8.33983278 L0.302821701,12.3398328 C0.302821701,12.8929578 0.749696701,13.3398328 1.3028217,13.3398328 L2.3028217,13.3398328 L2.3028217,7.33983278 L1.3028217,7.33983278 C0.749696701,7.33983278 0.302821701,7.78670778 0.302821701,8.33983278 Z M14.8028217,3.33983278 L11.3028217,3.33983278 L11.3028217,1.33983278 C11.3028217,0.786707782 10.8559467,0.339832782 10.3028217,0.339832782 C9.7496967,0.339832782 9.3028217,0.786707782 9.3028217,1.33983278 L9.3028217,3.33983278 L5.8028217,3.33983278 C4.4215717,3.33983278 3.3028217,4.45858278 3.3028217,5.83983278 L3.3028217,14.3398328 C3.3028217,15.4429578 4.1996967,16.3398328 5.3028217,16.3398328 L15.3028217,16.3398328 C16.4059467,16.3398328 17.3028217,15.4429578 17.3028217,14.3398328 L17.3028217,5.83983278 C17.3028217,4.45858278 16.1840717,3.33983278 14.8028217,3.33983278 Z M8.3028217,13.3398328 L6.3028217,13.3398328 L6.3028217,12.3398328 L8.3028217,12.3398328 L8.3028217,13.3398328 Z M7.3028217,9.58983278 C6.6121967,9.58983278 6.0528217,9.03045778 6.0528217,8.33983278 C6.0528217,7.64920778 6.6121967,7.08983278 7.3028217,7.08983278 C7.9934467,7.08983278 8.5528217,7.64920778 8.5528217,8.33983278 C8.5528217,9.03045778 7.9934467,9.58983278 7.3028217,9.58983278 Z M11.3028217,13.3398328 L9.3028217,13.3398328 L9.3028217,12.3398328 L11.3028217,12.3398328 L11.3028217,13.3398328 Z M14.3028217,13.3398328 L12.3028217,13.3398328 L12.3028217,12.3398328 L14.3028217,12.3398328 L14.3028217,13.3398328 Z M13.3028217,9.58983278 C12.6121967,9.58983278 12.0528217,9.03045778 12.0528217,8.33983278 C12.0528217,7.64920778 12.6121967,7.08983278 13.3028217,7.08983278 C13.9934467,7.08983278 14.5528217,7.64920778 14.5528217,8.33983278 C14.5528217,9.03045778 13.9934467,9.58983278 13.3028217,9.58983278 Z M19.3028217,7.33983278 L18.3028217,7.33983278 L18.3028217,13.3398328 L19.3028217,13.3398328 C19.8559467,13.3398328 20.3028217,12.8929578 20.3028217,12.3398328 L20.3028217,8.33983278 C20.3028217,7.78670778 19.8559467,7.33983278 19.3028217,7.33983278 Z" id="Shape"></path>
        </g>
    </g>
</svg>