<?xml version="1.0" encoding="UTF-8"?>
<svg width="60px" height="60px" viewBox="0 0 60 60" version="1.1" xmlns="http://www.w3.org/2000/svg" xmlns:xlink="http://www.w3.org/1999/xlink">
    <!-- Generator: Sketch 53.2 (72643) - https://sketchapp.com -->
    <title>Water</title>
    <desc>Created with Sketch.</desc>
    <g id="Water" stroke="none" stroke-width="1" fill="none" fill-rule="evenodd">
        <circle id="Oval-Copy-3" stroke="#979797" fill="#D8D8D8" opacity="0.247836" cx="30" cy="30" r="30"></circle>
        <g id="tap" transform="translate(7.000000, 7.000000)" fill="#329AD2" fill-rule="nonzero">
            <path d="M38,26.1251012 L38,28.7325576 C38,29.5802265 37.3122348,30.2670777 36.4634379,30.2670777 L28.8771236,30.2670777 C28.0283267,30.2670777 27.3405615,29.5802265 27.3405615,28.7325576 L27.3405615,26.1251012 C27.3405615,25.3817797 27.8695486,24.7624474 28.5720648,24.621067 L28.5720648,21.685837 C28.5720648,21.1620542 28.1453103,20.7358668 27.6208304,20.7358668 L27.308601,20.7358668 C25.8953736,23.2764182 23.2297457,24.8674086 20.2561907,24.8674086 C17.2826358,24.8674086 14.6172127,23.2764182 13.2037805,20.7358668 L1.53656209,20.7358668 C0.687765192,20.7358668 0,20.0490157 0,19.2013468 L0,14.1341571 C0,13.2864882 0.687765192,12.5996371 1.53656209,12.5996371 L13.3617391,12.5996371 C14.3344853,11.0096697 15.8245408,9.82010977 17.5518414,9.20486954 L17.5518414,7.29920027 C17.5518414,7.1940345 17.5624949,7.09152856 17.5827776,6.99229626 L13.4580303,6.99229626 C12.6092334,6.99229626 11.9214682,6.3054451 11.9214682,5.45777624 L11.9214682,3.26034355 C11.9214682,2.41267469 12.6092334,1.72582353 13.4580303,1.72582353 L17.5516366,1.72582353 L17.5516366,1.53452003 C17.5516366,0.686851165 18.2394018,0 19.0881987,0 L21.423773,0 C22.2725699,0 22.9603351,0.686851165 22.9603351,1.53452003 L22.9603351,1.72582353 L27.0541463,1.72582353 C27.9029432,1.72582353 28.5907084,2.41267469 28.5907084,3.26034355 L28.5907084,5.45777624 C28.5907084,6.3054451 27.9029432,6.99229626 27.0541463,6.99229626 L22.929399,6.99229626 C22.9494768,7.09152856 22.9603351,7.1940345 22.9603351,7.29920027 L22.9603351,9.20486954 C24.6876358,9.82010977 26.1776913,11.0094651 27.1504375,12.5996371 L30.108422,12.5996371 C33.7263086,12.5996371 36.669747,15.538959 36.669747,19.1520376 L36.669747,24.6059264 C37.4208185,24.7067955 38,25.347611 38,26.1251012 Z M36.4013608,40.8601763 C36.3829221,40.7679005 36.3562883,40.6786937 36.3220742,40.5931698 L34.0377186,33.3254784 C33.8369411,32.6856858 33.2430086,32.2504959 32.5718383,32.2504959 C31.900668,32.2504959 31.3067355,32.6856858 31.1059581,33.3254784 L28.7875932,40.7016092 C28.7759153,40.7384377 28.7658765,40.7754708 28.7572717,40.8127085 C28.6343467,41.2018628 28.5724745,41.6022702 28.5724745,42.0057467 C28.5724745,44.2082944 30.3667693,46 32.5720432,46 C34.7773171,46 36.5716119,44.2080898 36.5716119,42.0057467 C36.571407,41.618843 36.514042,41.2345992 36.4013608,40.8601763 Z" id="Shape"></path>
        </g>
    </g>
</svg>